<svg xmlns="http://www.w3.org/2000/svg" id="Capa_1" data-name="Capa 1" viewBox="0 0 872.41 247.75"><defs><style>      .cls-1 {        fill: none;      }      .cls-2 {        fill: #010101;      }      .cls-3, .cls-4 {        fill: #ffb900;      }      .cls-5 {        fill: #919191;      }      .cls-6 {        fill: #1d1d1b;      }      .cls-7, .cls-8 {        fill: #2ab9d4;      }      .cls-9, .cls-4 {        isolation: isolate;      }      .cls-10 {        fill: #7ab929;      }      .cls-8, .cls-4 {        stroke: #010101;        stroke-miterlimit: 10;        stroke-width: 1.5px;      }      .cls-11 {        fill: #fff;      }      .cls-12 {        fill: #fbb811;      }      .cls-13 {        fill: #78b82c;      }      .cls-14 {        fill: #afafaf;      }    </style></defs><path class="cls-4" d="M195.1,136.87c2.87.09,5.78.29,8.56,1.03,31.4,8.39,77.97,10.89,129.31-1.19,31.75-7.47,61.43-10.42,94.35-1.46,38.5,10.49,65.69,19.93,106.05,19.69,42.75-.26,76.79-15.68,117.95-25.65,17.14-4.15,26.19-5.42,28.78-5.6,0,0,4.32,4.85,4.57,10.98-69.72,12.56-99.7,33.52-150.33,33.18-34.89-.24-78.79-12.3-112.47-20.62-34.63-8.55-53.82-5.3-83.62,1.55-64.99,14.94-111.93,9.73-168.49-4.15,7.58-3.79,15.5-7.67,23.98-7.78.46,0,.91,0,1.37,0h-.01Z"></path><g><g><g><g><ellipse class="cls-10" cx="114.27" cy="134.31" rx="87.4" ry="43.72"></ellipse><path class="cls-2" d="M114.27,179.17c-48.82,0-88.55-20.13-88.55-44.86s39.73-44.86,88.55-44.86,88.55,20.13,88.55,44.86-39.73,44.86-88.55,44.86ZM114.27,91.73c-47.56,0-86.26,19.09-86.26,42.58s38.69,42.58,86.26,42.58,86.26-19.09,86.26-42.58-38.69-42.58-86.26-42.58Z"></path></g><g><g><g><polygon class="cls-5" points="162.69 155.45 191.72 138.25 191.72 124.36 83.14 124.02 83.14 124.02 39.15 148.11 162.69 155.45"></polygon><path d="M162.69,156.01h-.03l-123.56-7.34c-.24-.01-.46-.2-.52-.43s.06-.5.28-.62l44-24.09c.08-.04.17-.09.27-.07l108.57.36c.31,0,.57.26.57.57v13.87c0,.2-.11.39-.28.49l-29.02,17.2c-.09.06-.19.08-.29.08h.01ZM41.15,147.66l121.41,7.2,28.59-16.94v-13l-107.86-.36-42.15,23.07h0v.02Z"></path></g><g><polygon class="cls-11" points="38.95 95.25 70.02 84.25 191.35 88.78 162.69 99.05 38.95 95.25"></polygon><path d="M162.69,99.61h-.01l-123.75-3.8c-.27,0-.5-.21-.54-.48-.04-.27.11-.53.37-.62l31.07-10.99c.07-.02.13-.03.21-.03l121.33,4.52c.27,0,.5.21.53.48.03.27-.11.53-.37.62l-28.66,10.27c-.06.02-.13.03-.19.03h0ZM41.98,94.77l120.62,3.7,25.79-9.24-118.29-4.41-28.12,9.95h-.01Z"></path></g><g><g><path d="M162.53,155.45v-56.11l28.83-10.55.37,49.47-.1.04-29.09,17.14h0Z"></path><path d="M162.53,156.01c-.31,0-.57-.26-.57-.57v-56.11c0-.23.16-.46.37-.53l28.83-10.55c.18-.06.37-.03.52.07.16.11.24.28.24.46l.37,49.47c0,.22-.13.42-.32.52l-.1.04-28.97,17.08c-.1.08-.22.13-.36.13h-.01ZM163.09,99.73v54.71l28.06-16.53-.36-48.33-27.7,10.14h0Z"></path></g><g><polygon class="cls-11" points="191.35 88.78 191.72 138.25 162.88 155.45 162.88 99.14 191.35 88.78"></polygon><path d="M162.88,156.01c-.1,0-.2-.02-.28-.08-.18-.1-.29-.29-.29-.49v-56.31c0-.24.16-.46.37-.53l28.47-10.36c.18-.06.37-.03.51.07s.24.28.24.46l.37,49.47c0,.2-.11.39-.28.49l-28.83,17.2c-.09.06-.19.08-.29.08h0ZM163.45,99.54v54.91l27.69-16.52-.36-48.35-27.34,9.95h0Z"></path></g></g><g><g><polygon class="cls-7" points="133.81 77.93 146.93 88.93 129.3 94.89 116.18 83.88 133.81 77.93"></polygon><path d="M129.3,95.07s-.08-.01-.11-.03l-13.12-10.99s-.08-.11-.06-.18.06-.12.13-.14l17.63-5.96c.06-.02.12,0,.16.03l13.12,10.99s.08.11.06.18-.06.12-.13.14l-17.63,5.96h-.04ZM116.56,83.95l12.8,10.73,17.22-5.83-12.8-10.73-17.22,5.83h0Z"></path></g><path d="M129.31,95.08s-.08-.01-.11-.03l-12.72-10.67.03,11.14c0,.1-.08.18-.18.19s-.18-.08-.18-.18l-.03-11.54c0-.08.03-.13.1-.17s.13-.03.19.02l13.01,10.92c.08.06.08.18.02.26-.03.03-.08.07-.13.07h0Z"></path><g><line class="cls-1" x1="120.59" y1="82.39" x2="133.71" y2="93.4"></line><path d="M133.71,93.58s-.08-.01-.11-.03l-13.12-10.99c-.08-.06-.08-.18-.02-.26.07-.08.18-.1.24-.03l13.12,10.99c.08.06.08.18.02.26-.03.03-.09.07-.13.07h0Z"></path></g><g><line class="cls-1" x1="124.99" y1="80.92" x2="138.11" y2="91.9"></line><path d="M138.11,92.09s-.08-.01-.11-.03l-13.12-10.99c-.08-.06-.08-.18-.02-.26.07-.08.18-.1.24-.03l13.12,10.99c.08.06.08.18.02.26-.03.03-.09.07-.13.07h0Z"></path></g><g><line class="cls-1" x1="129.41" y1="79.41" x2="142.53" y2="90.42"></line><path d="M142.53,90.6s-.08-.01-.11-.03l-13.12-10.99c-.08-.06-.08-.18-.02-.26s.18-.1.24-.03l13.12,10.99c.08.06.08.18.02.26-.03.03-.09.07-.13.07h0Z"></path></g><g><line class="cls-1" x1="146.93" y1="88.93" x2="129.3" y2="94.89"></line><path d="M129.3,95.07c-.08,0-.16-.04-.17-.13-.03-.1.03-.2.12-.22l17.63-5.96c.1-.03.2.02.22.11.03.1-.03.2-.12.22l-17.63,5.96h-.04s-.01.02-.01.02Z"></path></g><g><line class="cls-1" x1="146.93" y1="88.93" x2="129.3" y2="94.89"></line><path d="M129.3,95.07c-.08,0-.16-.04-.17-.13-.03-.1.03-.2.12-.22l17.63-5.96c.1-.03.2.02.22.11.03.1-.03.2-.12.22l-17.63,5.96h-.04s-.01.02-.01.02Z"></path></g><g><line class="cls-1" x1="140.37" y1="83.43" x2="122.74" y2="89.39"></line><path d="M122.74,89.56c-.08,0-.16-.04-.17-.13-.03-.1.03-.2.12-.22l17.63-5.96c.1-.03.2.02.22.11.03.1-.03.2-.12.22l-17.63,5.96h-.04s-.01.02-.01.02Z"></path></g></g><g><g><polygon class="cls-7" points="166.33 77.93 179.43 88.93 161.81 94.89 148.7 83.88 166.33 77.93"></polygon><path d="M161.81,95.07s-.08-.01-.11-.03l-13.12-10.99s-.08-.11-.06-.18.06-.12.13-.14l17.63-5.96c.06-.02.12,0,.16.03l13.12,10.99s.08.11.06.18-.06.12-.13.14l-17.63,5.96h-.04ZM149.06,83.95l12.8,10.73,17.22-5.83-12.8-10.73-17.22,5.83h0Z"></path></g><path d="M161.81,95.08s-.08-.01-.11-.03l-12.82-10.62.03,11.09c0,.1-.08.18-.18.19s-.18-.08-.18-.18l-.03-11.48c0-.07.03-.13.1-.17s.13-.03.19.02l13.12,10.86c.08.06.08.18.02.26-.03.03-.09.07-.13.07h0s-.01-.01-.01-.01Z"></path><g><line class="cls-1" x1="153.1" y1="82.39" x2="166.22" y2="93.4"></line><path d="M166.22,93.58s-.08-.01-.11-.03l-13.12-10.99c-.08-.06-.08-.18-.02-.26.07-.08.18-.1.24-.03l13.12,10.99c.08.06.08.18.02.26-.03.03-.09.07-.13.07h0Z"></path></g><g><line class="cls-1" x1="157.51" y1="80.92" x2="170.62" y2="91.9"></line><path d="M170.63,92.09s-.08-.01-.11-.03l-13.12-10.99c-.08-.06-.08-.18-.02-.26.07-.08.18-.1.24-.03l13.12,10.99c.08.06.08.18.02.26-.03.03-.09.07-.13.07h0Z"></path></g><g><line class="cls-1" x1="161.91" y1="79.41" x2="175.03" y2="90.42"></line><path d="M175.03,90.6s-.08-.01-.11-.03l-13.12-10.99c-.08-.06-.08-.18-.02-.26s.18-.1.24-.03l13.12,10.99c.08.06.08.18.02.26-.03.03-.09.07-.13.07h0Z"></path></g><g><line class="cls-1" x1="179.43" y1="88.93" x2="161.81" y2="94.89"></line><path d="M161.81,95.07c-.08,0-.16-.04-.17-.13-.03-.1.03-.2.12-.22l17.63-5.96c.1-.03.2.02.22.11.03.1-.03.2-.12.22l-17.63,5.96h-.04s-.01.02-.01.02Z"></path></g><g><line class="cls-1" x1="179.43" y1="88.93" x2="161.81" y2="94.89"></line><path d="M161.81,95.07c-.08,0-.16-.04-.17-.13-.03-.1.03-.2.12-.22l17.63-5.96c.1-.03.2.02.22.11.03.1-.03.2-.12.22l-17.63,5.96h-.04s-.01.02-.01.02Z"></path></g><g><line class="cls-1" x1="172.88" y1="83.43" x2="155.26" y2="89.39"></line><path d="M155.26,89.56c-.08,0-.16-.04-.17-.13-.03-.1.03-.2.12-.22l17.63-5.96c.1-.03.2.02.22.11.03.1-.03.2-.12.22l-17.63,5.96h-.04s-.01.02-.01.02Z"></path></g></g><g><g><polygon class="cls-7" points="101.3 77.93 114.42 88.93 96.79 94.89 83.67 83.88 101.3 77.93"></polygon><path d="M96.79,95.07s-.08-.01-.11-.03l-13.12-10.99s-.08-.11-.06-.18.06-.12.13-.14l17.63-5.96c.06-.02.12,0,.16.03l13.12,10.99s.08.11.06.18-.06.12-.13.14l-17.63,5.96h-.04ZM84.04,83.95l12.8,10.73,17.22-5.83-12.8-10.73-17.22,5.83h0Z"></path></g><path d="M96.79,95.08s-.08-.01-.11-.03l-12.82-10.64.03,11.11c0,.1-.08.18-.18.19s-.18-.08-.18-.18l-.03-11.5c0-.07.03-.13.1-.17s.13-.03.19.02l13.12,10.88c.08.06.08.18.02.26-.03.03-.09.07-.13.07h-.01Z"></path><g><line class="cls-1" x1="88.09" y1="82.39" x2="101.19" y2="93.4"></line><path d="M101.2,93.58s-.08-.01-.11-.03l-13.12-10.99c-.08-.06-.08-.18-.02-.26.07-.08.18-.1.24-.03l13.12,10.99c.08.06.08.18.02.26-.03.03-.09.07-.13.07h0Z"></path></g><g><line class="cls-1" x1="92.49" y1="80.92" x2="105.61" y2="91.9"></line><path d="M105.61,92.09s-.08-.01-.11-.03l-13.12-10.99c-.08-.06-.08-.18-.02-.26.07-.08.18-.1.24-.03l13.12,10.99c.08.06.08.18.02.26-.03.03-.09.07-.13.07h0Z"></path></g><g><line class="cls-1" x1="96.9" y1="79.41" x2="110.01" y2="90.42"></line><path d="M110.01,90.6s-.08-.01-.11-.03l-13.12-10.99c-.08-.06-.08-.18-.02-.26s.18-.1.24-.03l13.12,10.99c.08.06.08.18.02.26-.03.03-.09.07-.13.07h0Z"></path></g><g><line class="cls-1" x1="114.42" y1="88.93" x2="96.79" y2="94.89"></line><path d="M96.79,95.07c-.08,0-.16-.04-.17-.13-.03-.1.03-.2.12-.22l17.63-5.96c.1-.03.2.02.22.11.03.1-.03.2-.12.22l-17.63,5.96h-.04s-.01.02-.01.02Z"></path></g><g><line class="cls-1" x1="114.42" y1="88.93" x2="96.79" y2="94.89"></line><path d="M96.79,95.07c-.08,0-.16-.04-.17-.13-.03-.1.03-.2.12-.22l17.63-5.96c.1-.03.2.02.22.11.03.1-.03.2-.12.22l-17.63,5.96h-.04s-.01.02-.01.02Z"></path></g><g><line class="cls-1" x1="107.86" y1="83.43" x2="90.23" y2="89.39"></line><path d="M90.23,89.56c-.08,0-.16-.04-.17-.13-.03-.1.03-.2.12-.22l17.63-5.96c.1-.03.2.02.22.11.03.1-.03.2-.12.22l-17.63,5.96h-.04s-.01.02-.01.02Z"></path></g></g><g><g><polygon class="cls-7" points="68.81 77.93 81.9 88.93 64.28 94.89 51.18 83.88 68.81 77.93"></polygon><path d="M64.28,95.07s-.08-.01-.11-.03l-13.12-10.99s-.08-.11-.06-.18.06-.12.13-.14l17.63-5.96c.06-.02.12,0,.16.03l13.12,10.99s.08.11.06.18-.06.12-.13.14l-17.63,5.96h-.04ZM51.53,83.95l12.8,10.73,17.22-5.83-12.8-10.73-17.22,5.83h0Z"></path></g><path d="M64.28,95.08s-.08-.01-.11-.03l-12.82-10.66.03,11.13c0,.1-.08.18-.18.19s-.18-.08-.18-.18l-.03-11.52c0-.08.03-.13.1-.17s.13-.03.19.02l13.12,10.91c.08.06.08.18.02.26-.03.03-.09.07-.13.07h-.01Z"></path><g><line class="cls-1" x1="55.58" y1="82.39" x2="68.69" y2="93.4"></line><path d="M68.69,93.58s-.08-.01-.11-.03l-13.12-10.99c-.08-.06-.08-.18-.02-.26.07-.08.18-.1.24-.03l13.12,10.99c.08.06.08.18.02.26-.03.03-.09.07-.13.07h0Z"></path></g><g><line class="cls-1" x1="59.99" y1="80.92" x2="73.1" y2="91.9"></line><path d="M73.1,92.09s-.08-.01-.11-.03l-13.12-10.99c-.08-.06-.08-.18-.02-.26.07-.08.18-.1.24-.03l13.12,10.99c.08.06.08.18.02.26-.03.03-.09.07-.13.07h0Z"></path></g><g><line class="cls-1" x1="64.39" y1="79.41" x2="77.5" y2="90.42"></line><path d="M77.5,90.6s-.08-.01-.11-.03l-13.12-10.99c-.08-.06-.08-.18-.02-.26s.18-.1.24-.03l13.12,10.99c.08.06.08.18.02.26-.03.03-.09.07-.13.07h0Z"></path></g><g><line class="cls-1" x1="81.9" y1="88.93" x2="64.28" y2="94.89"></line><path d="M64.28,95.07c-.08,0-.16-.04-.17-.13-.03-.1.03-.2.12-.22l17.63-5.96c.1-.03.2.02.22.11.03.1-.03.2-.12.22l-17.63,5.96h-.04s-.01.02-.01.02Z"></path></g><g><line class="cls-1" x1="81.9" y1="88.93" x2="64.28" y2="94.89"></line><path d="M64.28,95.07c-.08,0-.16-.04-.17-.13-.03-.1.03-.2.12-.22l17.63-5.96c.1-.03.2.02.22.11.03.1-.03.2-.12.22l-17.63,5.96h-.04s-.01.02-.01.02Z"></path></g><g><line class="cls-1" x1="75.36" y1="83.43" x2="57.72" y2="89.39"></line><path d="M57.72,89.56c-.08,0-.16-.04-.17-.13-.03-.1.03-.2.12-.22l17.63-5.96c.1-.03.2.02.22.11.03.1-.03.2-.12.22l-17.63,5.96h-.04s-.01.02-.01.02Z"></path></g></g><g><polygon class="cls-11" points="38.95 95.25 38.95 122.33 39.15 148.11 45.63 148.42 45.82 122.56 58.48 123.38 58.48 149.26 64.73 149.6 64.89 123.53 83.14 124.02 83.14 135.21 89.05 135.55 89.05 124.44 104.58 124.88 104.58 151.78 115.38 152.5 115.38 125.31 133.67 126.04 133.67 153.71 162.69 155.45 162.69 125.45 162.69 99.05 38.95 95.25"></polygon><path d="M162.69,156.01h-.03l-29.03-1.73c-.3-.01-.53-.27-.53-.57v-27.13l-17.15-.69v26.6c0,.16-.07.31-.18.41-.11.11-.27.16-.42.16l-10.79-.72c-.3-.02-.53-.27-.53-.57v-26.35l-14.4-.41v10.52c0,.16-.06.3-.18.41s-.27.17-.42.16l-5.9-.33c-.3-.01-.53-.27-.53-.57v-10.65l-17.11-.46-.18,25.5c0,.16-.07.3-.18.41s-.26.17-.41.16l-6.25-.33c-.3-.01-.53-.27-.53-.57v-25.36l-11.54-.74-.18,25.26c0,.16-.07.3-.18.41-.11.11-.27.17-.41.16l-6.48-.31c-.3-.01-.53-.27-.53-.56l-.2-25.78v-27.09c0-.16.06-.3.18-.41.11-.11.27-.17.41-.16l123.75,3.8c.3,0,.56.26.56.57v56.4c0,.16-.06.3-.18.41-.11.1-.24.16-.39.16h-.03ZM134.23,153.18l27.89,1.67v-55.25l-122.61-3.76v26.5l.19,25.24,5.36.26.18-25.26c0-.16.07-.3.18-.41.11-.11.27-.16.42-.16l12.66.82c.3.02.53.27.53.57v25.35l5.13.27.17-25.48c0-.16.06-.3.18-.4.11-.11.27-.16.41-.16l18.24.48c.31,0,.56.26.56.57v10.66l4.77.27v-10.51c0-.16.06-.3.18-.41.11-.11.24-.16.41-.16l15.53.43c.31,0,.56.26.56.57v26.37l9.66.64v-26.58c0-.16.06-.3.18-.41.11-.11.24-.18.41-.16l18.29.73c.3.01.54.27.54.57v27.13h-.01Z"></path></g><g><polygon class="cls-11" points="89.05 135.55 91.89 133.33 91.89 124.36 89.05 124.44 89.05 135.55"></polygon><path class="cls-6" d="M89.05,136.11c-.08,0-.17-.02-.24-.06-.2-.1-.32-.3-.32-.51v-11.09c0-.31.24-.56.56-.57l2.83-.08c.16,0,.3.06.41.16.11.11.18.24.18.41v8.97c0,.18-.08.34-.22.44l-2.83,2.2c-.1.08-.22.12-.34.12h-.01ZM89.62,125v9.38l1.7-1.32v-8.1l-1.7.04Z"></path></g><g><g><polygon class="cls-11" points="115.38 152.5 118.86 148.91 118.86 125.46 115.38 125.31 115.38 152.5"></polygon><path d="M115.38,153.07c-.07,0-.14-.01-.21-.03-.21-.09-.36-.3-.36-.53v-27.19c0-.16.06-.3.18-.41s.27-.17.41-.16l3.48.16c.3.01.54.27.54.57v23.45c0,.14-.06.29-.16.39l-3.48,3.59c-.11.11-.26.18-.41.18h0ZM115.94,125.9v25.19l2.35-2.41v-22.68l-2.35-.1h0Z"></path></g><path d="M115.2,153.08c-.07,0-.14-.01-.21-.03-.21-.09-.36-.3-.36-.53v-27.19c0-.16.06-.3.18-.41.11-.11.27-.18.41-.16l3.84.16c.31.01.56.27.54.58l-.26,23.38c0,.14-.06.29-.16.39l-3.57,3.67c-.11.11-.26.18-.41.18h0v-.02ZM115.77,125.9v25.21l2.45-2.51.24-22.6-2.69-.11h0Z"></path></g><g><g><polygon class="cls-11" points="45.63 148.49 49.49 146.5 49.5 122.94 45.63 122.56 45.63 148.49"></polygon><path class="cls-6" d="M45.63,149.05c-.11,0-.2-.03-.3-.08-.17-.11-.27-.29-.27-.48v-25.93c0-.16.07-.31.19-.42.12-.11.27-.17.43-.14l3.88.38c.29.03.51.27.51.57v23.56c-.01.21-.13.41-.32.51l-3.86,1.99c-.08.04-.18.06-.26.06h-.01ZM46.2,123.18v24.37l2.72-1.41v-22.69l-2.72-.27h0Z"></path></g><path d="M45.63,148.49v-25.93l3.86.39v25.77l-3.86-.22h0ZM45.82,122.56l-.18,25.93,3.86.22v-25.78l-3.68-.38h0Z"></path></g><g><polygon class="cls-11" points="64.89 149.3 68.72 146.81 68.72 123.64 64.89 123.53 64.89 149.3"></polygon><path class="cls-6" d="M64.89,149.86c-.09,0-.19-.02-.27-.07-.18-.1-.3-.29-.3-.5v-25.77c0-.16.06-.3.18-.41.11-.11.26-.16.41-.16l3.81.11c.31,0,.56.26.56.57v23.17c0,.19-.1.37-.26.48l-3.81,2.49c-.09.06-.2.09-.31.09h-.01ZM65.46,124.11v24.14l2.68-1.76v-22.31l-2.68-.08h0Z"></path></g><g><polygon points="162.74 127.24 39.15 122.56 39.15 122.24 163.14 127.24 191.35 113.82 191.35 113.82 162.74 127.24"></polygon><path d="M162.74,127.81h-.02l-123.59-4.68c-.3,0-.54-.27-.54-.57v-.32c0-.16.06-.3.18-.41.11-.11.27-.18.41-.16l123.49,4.98,28.46-13.34c.28-.13.62-.01.76.27s.01.62-.27.76l-28.22,13.42c-.08.03-.18.07-.27.06h-.39Z"></path></g></g><g><g><g><g><polygon class="cls-14" points="57.79 136.57 65.15 135.45 75.88 135.57 65.38 136.57 57.79 136.57"></polygon><path class="cls-6" d="M57.79,136.67v-.19l7.35-1.12,10.74.13v.19l-10.48,1h-7.6ZM59.02,136.48h6.36l8.73-.83-8.96-.11-6.13.93h0Z"></path></g><g><path d="M57.79,136.81l-.03-.48,7.37-1.12,10.76.12.02.48-10.48,1h-7.64ZM60.98,136.32h4.41l5.96-.57-6.19-.08-4.18.64h0Z"></path><path class="cls-6" d="M57.71,137.02l-.02-.2-.03-.57h.08l7.37-1.15,10.87.12.03.67h-.09l-10.48,1h-7.6l-.12.13h0ZM57.88,136.7h7.55l10.38-.99v-.3l-10.69-.12-7.27,1.11v.3h.03ZM60.98,136.41v-.19l4.16-.64,6.2.08v.19l-5.95.57h-4.42.01ZM62.2,136.22h3.18l4.19-.4-4.42-.06-2.95.46h0Z"></path></g></g><g><g><polygon class="cls-11" points="65.38 157.05 75.88 153.53 75.88 135.57 65.38 136.57 65.38 157.05"></polygon><path class="cls-6" d="M65.3,157.18v-20.7l10.68-1.01v18.13l-.07.02-10.62,3.57h0ZM65.48,136.65v20.27l10.31-3.46v-17.79l-10.31.98Z"></path></g><g><path d="M65.15,157.05v-20.7l10.98-1.05v18.4l-10.98,3.35h0ZM65.63,136.79v19.92l10.01-3.36v-17.52l-10.01.96h0Z"></path><path class="cls-6" d="M65.06,157.19v-20.92l11.17-1.06v18.58l-.07.02-11.11,3.38h0ZM65.25,136.43v20.5l.3-.09v-20.14l10.19-.97v17.7l-.06.02-9.86,3.31,10.23-3.12v-18.23l-10.79,1.02h-.01ZM65.72,136.87v19.71l9.82-3.3v-17.34l-9.82.93h0Z"></path></g></g><g><g><polyline class="cls-11" points="57.68 156.56 65.38 157.05 65.38 136.57 57.79 136.57"></polyline><polygon class="cls-6" points="65.48 157.15 65.38 157.15 57.67 156.66 57.68 156.47 65.3 156.95 65.3 136.67 57.79 136.67 57.79 136.48 65.48 136.48 65.48 157.15"></polygon></g><g><path d="M65.63,157.05l-8.15-.49.06-20.23h8.08v20.72h.01ZM58.04,156.2l7.1.34v-19.74h-7.1v19.39h0Z"></path><path class="cls-6" d="M65.72,157.15l-8.34-.51v-.09l.06-20.33h8.27v20.92h.01ZM57.58,156.47l7.96.48v-20.52h-7.89l-.06,20.06h-.01ZM65.25,156.65h-.1l-7.2-.36v-19.58h7.29v19.93h.01ZM58.14,156.1l6.91.34v-19.54h-6.91v19.21h0Z"></path></g></g></g><g><g><polygon class="cls-14" points="67.85 139.33 70.7 138.9 70.7 141.65 67.85 142.32 67.85 139.33"></polygon><path class="cls-6" d="M67.75,142.44v-3.19h.08l2.95-.46v2.93h-.08l-2.96.71h.01ZM67.94,139.41v2.79l2.66-.62v-2.57l-2.66.39h0Z"></path></g><g><path class="cls-3" d="M67.85,142.56s-.11-.02-.16-.06c-.06-.04-.1-.11-.1-.19v-2.99c0-.12.09-.22.21-.24l2.85-.42c.07-.01.14.01.2.06.06.04.08.11.08.18v2.75c0,.11-.08.21-.19.23l-2.85.67h-.06v.02Z"></path><path class="cls-6" d="M67.85,142.65c-.07,0-.13-.02-.2-.07-.09-.07-.14-.17-.14-.27v-2.99c0-.17.12-.3.29-.33l2.85-.42c.11-.02.22.03.27.07.08.07.12.16.12.26v2.75c0,.16-.11.3-.27.32l-2.91.68h0ZM67.8,142.45h.11l2.81-.67c.07-.01.11-.08.11-.14v-2.75s-.01-.08-.06-.11c-.03-.02-.08-.03-.11-.03l-2.85.42c-.08.01-.13.08-.13.16v2.99s.02.08.06.11c0,0,.02.01.03.01h.02Z"></path></g></g><g><g><path d="M69.06,149.39c-.16-1.05-.28-1.91-.37-2.65.94-1.05-.14-1.47-.14-1.47h0c-.1-1.18-.07-1.67-.07-1.67l-.64.16s.16,9.34,3.8,10.94l.58-.2s-2.7-2.2-3.16-5.13h0Z"></path><path class="cls-6" d="M71.64,154.8h-.03c-1.55-.7-2.66-2.76-3.32-6.16-.49-2.51-.53-4.87-.53-4.89v-.08l.83-.2v.13s-.03.48.06,1.6c.13.06.43.24.51.58.07.3-.06.62-.37.98.08.7.2,1.52.36,2.59h0c.46,2.86,3.1,5.04,3.12,5.06l.13.11-.77.27h.01ZM67.95,143.84c.03.89.37,9.24,3.71,10.76l.39-.13c-.54-.48-2.66-2.51-3.07-5.06h0c-.17-1.1-.28-1.95-.37-2.65v-.04l.02-.03c.29-.32.4-.6.34-.83-.08-.32-.46-.48-.46-.48l-.06-.02v-.06c-.08-.86-.08-1.35-.08-1.56l-.44.11h0Z"></path></g><g><path d="M71.64,154.96l-.09-.03c-3.74-1.66-3.94-10.77-3.95-11.16v-.2l1.15-.27-.02.32s-.02.46.06,1.5c.17.1.43.3.52.64.08.33-.03.68-.34,1.05.09.77.21,1.61.34,2.53h0c.43,2.8,3.05,4.95,3.07,4.97l.34.28-1.08.37h0ZM69.11,150.53c.53,1.76,1.33,3.31,2.56,3.91l.08-.03c-.62-.59-2-2.01-2.65-3.88h.01ZM68.11,143.94c.03.72.16,3.31.78,5.76-.02-.1-.03-.19-.06-.29h0c-.16-.96-.27-1.85-.37-2.66v-.11l.06-.08c.18-.19.37-.47.31-.7-.06-.24-.37-.38-.37-.38l-.14-.06v-.16c-.07-.67-.08-1.11-.08-1.38l-.16.03h.02Z"></path><path class="cls-6" d="M71.64,155.06l-.12-.06c-3.78-1.68-3.99-10.86-4-11.25v-.27l1.35-.32-.03.46s-.02.46.06,1.45c.2.13.43.34.52.68.08.36-.03.72-.34,1.1.1.8.22,1.67.34,2.49.39,2.53,2.58,4.52,3.02,4.9h.01l.48.39-1.28.43h0ZM67.7,143.63v.12c0,.39.22,9.45,3.89,11.08l.06.02.89-.3-.21-.18c-.46-.39-2.7-2.42-3.1-5.04-.12-.83-.24-1.71-.34-2.53v-.03l.02-.03c.29-.34.4-.67.32-.97-.07-.3-.3-.48-.48-.59l-.04-.02v-.06c-.08-1.03-.06-1.5-.06-1.51v-.2l-.93.22h-.01ZM71.67,154.54h-.03c-1.09-.54-1.97-1.88-2.61-3.99l.18-.06c.61,1.78,1.9,3.17,2.62,3.85l.11.11-.27.1h0ZM70.01,152.51c.39.73.83,1.28,1.33,1.62-.4-.41-.89-.96-1.33-1.62ZM68.8,149.72c-.56-2.22-.73-4.57-.78-5.78h.08v-.1l.24-.06v.11c0,.24.01.67.07,1.38v.09l.1.03h0c.11.03.38.19.43.44.07.3-.18.62-.33.79l-.04.06v.06c.11.84.22,1.73.37,2.66,0,.04.01.09.02.14,0,.04.01.09.02.13l-.18.04h0ZM68.31,145.53c.03.32.06.67.11,1.02l.04-.06c.11-.11.34-.4.29-.62-.03-.18-.27-.3-.3-.31l-.13-.06h0v.02Z"></path></g></g></g></g></g><g><g><circle class="cls-11" cx="114.27" cy="192.98" r="31.33"></circle><path d="M114.27,225.14c-17.74,0-32.16-14.43-32.16-32.16s14.43-32.16,32.16-32.16,32.16,14.43,32.16,32.16-14.43,32.16-32.16,32.16ZM114.27,162.48c-16.82,0-30.51,13.68-30.51,30.51s13.68,30.51,30.51,30.51,30.51-13.68,30.51-30.51-13.68-30.51-30.51-30.51Z"></path></g><path d="M112.22,207.34v-26.79l2.93,2.93h-8.79v-5.44h12.65v29.31h-6.79Z"></path></g></g><g><g><g><ellipse class="cls-10" cx="440.91" cy="146.86" rx="41.62" ry="18.7"></ellipse><path class="cls-2" d="M440.91,166.65c-23.95,0-42.7-8.69-42.7-19.78s18.75-19.78,42.7-19.78,42.7,8.69,42.7,19.78-18.75,19.78-42.7,19.78h0ZM440.91,129.24c-21.97,0-40.54,8.09-40.54,17.64s18.58,17.64,40.54,17.64,40.54-8.09,40.54-17.64-18.58-17.64-40.54-17.64h0Z"></path></g><path class="cls-8" d="M465.52,84.97s-.01,0-.01-.03l.07-4.87c.03-1.74-1.24-3.24-2.88-3.33s-3.01,1.26-3.03,3.02l-.04,4.36s-.01.03-.03.03l-2.16-.22s-.03,0-.03-.03l.07-4.23c.03-1.74-1.24-3.24-2.88-3.33s-3.01,1.26-3.03,3.02l-.04,3.89s-.01.03-.03.03l-7.94-.85s-.03,0-.03-.03v-13.56s.01-.03.03-.03l20.31,2.17c1.63.18,3.25-.88,3.53-2.52.23-1.42-.54-2.74-1.78-3.28,0,0-.01,0-.01-.03l.07-4.87c.03-1.74-1.24-3.24-2.88-3.33s-3.01,1.26-3.03,3.02l-.04,4.36s-.01.03-.03.03l-2.16-.22s-.03,0-.03-.03l.07-4.23c.03-1.74-1.24-3.24-2.88-3.33s-3.01,1.26-3.03,3.02l-.04,3.89s-.01.03-.03.03l-21.7-2.34s-.03,0-.03-.03l.07-2.63c.03-1.74-1.24-3.24-2.88-3.33s-3.01,1.26-3.03,3.02l-.04,2.27s-.01.03-.03.03l-2.37-.26s-.03,0-.03-.03l.04-2.15c.03-1.74-1.24-3.24-2.88-3.33s-3.01,1.26-3.03,3.02l-.04,2.13s0,0-.01.03c-1.31.48-2.23,1.83-1.95,3.44.23,1.36,1.44,2.32,2.81,2.47l21.03,2.26s.03,0,.03.03v13.56s-.01.03-.03.03l-7.55-.82s-.03,0-.03-.03l.07-2.63c.03-1.74-1.24-3.24-2.88-3.33s-3.01,1.26-3.03,3.02l-.04,2.27s-.01.03-.03.03l-2.37-.26s-.03,0-.03-.03l.04-2.15c.03-1.74-1.24-3.24-2.88-3.33s-3.01,1.26-3.03,3.02l-.04,2.13s0,.01-.01.03c-1.31.48-2.23,1.83-1.95,3.44.23,1.36,1.44,2.32,2.81,2.47l21.03,2.26s.03,0,.03.03v54.37c0,1.71,1.39,3.06,3.06,3.06h0c1.71,0,3.06-1.39,3.06-3.06v-53.7s.01-.03.03-.03l20.31,2.17c1.63.18,3.25-.88,3.53-2.52.23-1.42-.54-2.74-1.78-3.28l-.11.1-.18.04.02.03h-.06Z"></path><polygon class="cls-2" points="408.09 135.38 414.39 132.26 437.28 139.68 437.28 142.31 439.18 146.29 404.55 137.52 408.09 135.38"></polygon></g><g><g><circle class="cls-11" cx="440.95" cy="192.98" r="31.33"></circle><path d="M440.95,225.14c-17.74,0-32.16-14.43-32.16-32.16s14.43-32.16,32.16-32.16,32.16,14.43,32.16,32.16-14.43,32.16-32.16,32.16ZM440.95,162.48c-16.82,0-30.51,13.68-30.51,30.51s13.68,30.51,30.51,30.51,30.51-13.68,30.51-30.51-13.68-30.51-30.51-30.51Z"></path></g><path d="M428.61,207.35v-4.4l11.3-10.68c.89-.8,1.55-1.53,1.98-2.16s.72-1.21.86-1.76c.14-.54.21-1.06.21-1.53,0-1.15-.4-2.04-1.17-2.68s-1.95-.96-3.51-.96c-1.26,0-2.4.25-3.44.75-1.04.51-1.92,1.24-2.63,2.21l-4.9-3.18c1.09-1.67,2.63-3,4.65-3.98s4.33-1.47,6.95-1.47c2.18,0,4.09.35,5.74,1.05,1.64.69,2.92,1.7,3.83,3,.9,1.3,1.36,2.84,1.36,4.63,0,.93-.13,1.86-.4,2.81s-.75,1.94-1.44,2.97-1.73,2.19-3.1,3.47l-9.38,8.79-1.3-2.42h16.58v5.53h-22.2.01Z"></path></g></g><g><g><ellipse class="cls-10" cx="733.15" cy="122.28" rx="53.05" ry="28.76"></ellipse><path class="cls-2" d="M733.15,152.15c-29.87,0-54.15-13.4-54.15-29.87s24.29-29.87,54.15-29.87,54.15,13.4,54.15,29.87-24.29,29.87-54.15,29.87ZM733.15,94.63c-28.63,0-51.95,12.42-51.95,27.65s23.3,27.65,51.95,27.65,51.95-12.39,51.95-27.65-23.3-27.65-51.95-27.65Z"></path><ellipse class="cls-10" cx="792.53" cy="149.31" rx="53.05" ry="28.76"></ellipse><path class="cls-2" d="M792.53,179.17c-29.87,0-54.15-13.4-54.15-29.87s24.29-29.87,54.15-29.87,54.15,13.4,54.15,29.87-24.29,29.87-54.15,29.87ZM792.53,121.65c-28.63,0-51.95,12.42-51.95,27.65s23.3,27.65,51.95,27.65,51.95-12.39,51.95-27.65-23.3-27.65-51.95-27.65Z"></path><polygon class="cls-2" points="756.88 146.14 745.15 136.4 756.88 127.93 756.88 146.14"></polygon><path class="cls-2" d="M756.88,147.24c-.25,0-.5-.09-.71-.25l-11.73-9.73c-.26-.22-.41-.55-.4-.88,0-.34.18-.66.46-.86l11.73-8.46c.33-.24.78-.28,1.15-.09s.59.57.59.98v18.2c0,.42-.24.82-.64.99-.15.08-.31.1-.47.1h.02ZM746.94,136.45l8.84,7.33v-13.71l-8.84,6.37h0Z"></path><polygon class="cls-2" points="707.18 119.84 686.75 108.33 707.18 95.06 707.18 119.84"></polygon><path class="cls-2" d="M707.18,120.94c-.19,0-.37-.06-.54-.14l-20.43-11.5c-.33-.19-.55-.54-.56-.94-.01-.39.18-.75.5-.96l20.43-13.28c.34-.22.78-.24,1.12-.06.35.19.57.56.57.97v24.79c0,.4-.21.75-.55.96-.18.1-.37.15-.56.15h.02,0ZM688.88,108.26l17.2,9.68v-20.86l-17.2,11.17h0Z"></path><path class="cls-13" d="M707.91,87.39c.47-.84.74-1.78.74-2.78,0-2.02-1.07-3.81-2.73-5,.14-.45.24-.91.24-1.42,0-2.67-2.17-4.84-4.84-4.84s-4.84,2.17-4.84,4.84c0,.5.1.97.24,1.42-1.67,1.18-2.73,2.97-2.73,5,0,.99.26,1.94.74,2.78-2.28,1.06-3.87,3.36-3.87,6.03,0,3.67,2.97,6.64,6.64,6.64.13,0,.24,0,.37-.01,1,.62,2.18.97,3.45.97s2.43-.35,3.45-.97c.13,0,.24.01.37.01,3.67,0,6.64-2.97,6.64-6.64,0-2.68-1.59-4.98-3.87-6.03h-.02.02Z"></path><path class="cls-2" d="M701.31,102.12c-1.3,0-2.58-.33-3.71-.96h-.1c-4.27,0-7.75-3.47-7.75-7.75,0-2.64,1.37-5.08,3.55-6.49-.28-.74-.41-1.52-.41-2.31,0-2.07.94-4.01,2.59-5.42-.07-.34-.1-.67-.1-.99,0-3.28,2.67-5.93,5.93-5.93s5.93,2.67,5.93,5.93c0,.32-.03.65-.1.99,1.66,1.42,2.59,3.36,2.59,5.42,0,.79-.14,1.56-.41,2.31,2.18,1.42,3.55,3.87,3.55,6.49,0,4.27-3.47,7.75-7.75,7.75h-.1c-1.13.63-2.41.96-3.71.96h0ZM698.14,98.93l.3.18c1.75,1.07,4.01,1.06,5.74,0l.3-.18.65.03c3.05,0,5.54-2.49,5.54-5.54,0-2.15-1.27-4.12-3.23-5.02l-1.07-.5.57-1.04c.4-.72.59-1.48.59-2.25,0-1.59-.83-3.07-2.27-4.1l-.65-.46.24-.76c.13-.41.19-.76.19-1.1,0-2.05-1.67-3.72-3.72-3.72s-3.72,1.67-3.72,3.72c0,.33.07.69.19,1.1l.24.76-.65.46c-1.44,1.02-2.27,2.51-2.27,4.1,0,.78.21,1.53.59,2.25l.57,1.04-1.07.5c-1.96.9-3.23,2.89-3.23,5.02,0,3.05,2.49,5.54,5.54,5.54l.65-.03h-.03.01Z"></path><path class="cls-2" d="M703.88,115.29h-5.15v-15.37h5.15v15.37ZM700.94,113.08h.73v-10.96h-.73v10.96Z"></path><g><polygon class="cls-11" points="746.74 106.92 751.05 108.5 777.67 95.54 777.67 113.74 746.74 134.84 746.74 106.92"></polygon><path class="cls-2" d="M746.74,135.96c-.18,0-.35-.03-.51-.13-.35-.19-.58-.56-.58-.98v-27.93c0-.35.18-.71.47-.9.3-.21.67-.25,1-.13l3.87,1.42,26.2-12.76c.34-.17.74-.14,1.07.06.32.21.52.56.52.94v18.2c0,.37-.18.71-.48.9l-30.94,21.1c-.19.13-.41.19-.63.19v.02h.01ZM747.84,108.5v24.25l28.73-19.6v-15.85l-25.04,12.2c-.26.13-.58.14-.87.06l-2.82-1.04h0v-.02Z"></path></g><g><polygon class="cls-11" points="701.31 90.28 724.99 73.06 756.73 84.02 777.67 95.54 751.05 108.5 701.31 90.28"></polygon><path class="cls-2" d="M751.05,109.61c-.13,0-.25-.02-.39-.07l-49.74-18.23c-.39-.14-.66-.48-.72-.88-.06-.41.11-.8.45-1.05l23.69-17.22c.3-.22.66-.26,1-.15l31.73,10.98,21.12,11.58c.35.21.58.58.57.99,0,.41-.25.79-.63.97l-26.64,12.96c-.15.08-.32.11-.48.11h.04ZM703.63,89.95l47.35,17.36,24.29-11.82-19.08-10.49-31.01-10.72-21.56,15.67h.01Z"></path></g><g><polygon class="cls-11" points="707.16 92.41 707.16 120.06 746.74 134.84 746.74 106.92 707.16 92.41"></polygon><path class="cls-2" d="M746.74,135.96c-.13,0-.25-.02-.39-.07l-39.59-14.79c-.43-.17-.72-.57-.72-1.04v-27.64c0-.35.18-.71.47-.9.3-.21.67-.25,1-.13l39.59,14.52c.43.17.73.57.73,1.04v27.93c0,.35-.18.71-.47.9-.19.13-.41.19-.63.19h-.01.02ZM708.26,119.3l37.38,13.97v-25.56l-37.38-13.71v25.3Z"></path></g><g class="cls-9"><polygon class="cls-12" points="720.44 111.56 710.74 108.1 710.74 99.84 720.44 103.29 720.44 111.56"></polygon><path class="cls-2" d="M720.44,112.66c-.13,0-.25-.02-.37-.07l-9.7-3.45c-.43-.15-.74-.57-.74-1.04v-8.26c0-.35.18-.69.47-.9s.66-.25,1-.14l9.7,3.45c.43.15.74.57.74,1.04v8.26c0,.35-.18.69-.47.9-.19.13-.41.21-.64.21h.01ZM711.85,107.33l7.49,2.67v-5.93l-7.49-2.67v5.93Z"></path></g><g class="cls-9"><polygon class="cls-12" points="741.76 120.05 732.07 116.61 732.07 108.33 741.76 111.78 741.76 120.05"></polygon><path class="cls-2" d="M741.76,121.16c-.13,0-.25-.02-.37-.07l-9.7-3.45c-.43-.15-.74-.57-.74-1.04v-8.26c0-.35.18-.69.47-.9s.66-.25,1-.14l9.7,3.45c.43.15.74.57.74,1.04v8.26c0,.35-.18.69-.47.9-.19.13-.41.21-.64.21h.01ZM733.17,115.83l7.49,2.67v-5.93l-7.49-2.67v5.93Z"></path></g><g class="cls-9"><polygon class="cls-12" points="751.78 119.82 762.1 113.23 761.98 105.54 751.67 112.12 751.78 119.82"></polygon><path class="cls-2" d="M751.78,120.93c-.18,0-.35-.03-.52-.13-.35-.19-.57-.56-.58-.96l-.11-7.69c0-.39.19-.74.51-.95l10.33-6.6c.33-.22.76-.23,1.12-.03s.57.56.58.96l.11,7.69c0,.39-.19.74-.51.95l-10.33,6.6c-.18.11-.39.18-.59.18h-.01v-.02ZM752.77,112.73l.08,5.1,8.14-5.2-.08-5.1-8.14,5.2Z"></path></g><g class="cls-9"><path class="cls-12" d="M728.22,127.93l-8.01-3v-6.73c0-2.2,1.8-4.01,4.01-4.01h0c2.2,0,4.01,1.8,4.01,4.01v9.73s-.01,0-.01,0Z"></path><path class="cls-2" d="M728.22,129.05c-.13,0-.25-.02-.39-.07l-8.01-3c-.43-.17-.72-.57-.72-1.04v-6.75c0-2.82,2.29-5.11,5.11-5.11s5.11,2.29,5.11,5.11v9.73c0,.35-.18.71-.47.9-.19.13-.41.19-.63.19h-.02v.03h.02ZM721.31,124.17l5.81,2.17v-8.15c0-1.61-1.3-2.91-2.91-2.91s-2.91,1.3-2.91,2.91v5.98h.01,0Z"></path></g><rect class="cls-2" x="741.35" y="95.18" width="25.13" height="2.2" transform="translate(489.39 808.8) rotate(-76.91)"></rect><polygon class="cls-11" points="756.88 102.85 776.92 89.06 789.91 92.69 782.63 97.57 782.63 97.57 782.63 155.5 756.88 146.14 756.88 102.85"></polygon><path class="cls-2" d="M782.63,156.61c-.13,0-.25-.02-.39-.07l-25.75-9.36c-.43-.15-.73-.57-.73-1.04v-43.29c0-.35.18-.71.47-.9l20.04-13.79c.26-.18.62-.24.91-.15l12.99,3.62c.42.11.73.46.79.89.07.42-.11.86-.47,1.08l-6.8,4.57v57.35c0,.35-.18.71-.47.9-.19.13-.41.21-.64.21l.02-.02h.03ZM757.98,145.36l23.53,8.56v-56.34c0-.37.18-.72.48-.91l5.3-3.56-10.18-2.84-19.14,13.18v41.93h0v-.02Z"></path><line class="cls-1" x1="756.88" y1="102.85" x2="782.63" y2="110.74"></line><rect class="cls-2" x="768.66" y="93.35" width="2.2" height="26.93" transform="translate(442.19 811.54) rotate(-72.97)"></rect><path class="cls-2" d="M767.52,121.39c-.09,0-.18,0-.25-.03l-6.69-2.18c-.34-.11-.57-.43-.57-.79l.03-10.04c0-.26.13-.51.34-.66.22-.15.5-.21.74-.11l6.69,2.18c.34.11.57.43.57.79l-.03,10.04c0,.26-.13.51-.34.66-.14.1-.32.15-.48.15h-.01ZM761.66,117.78l5.02,1.64.02-8.31-5.02-1.64-.02,8.31Z"></path><polygon class="cls-12" points="767.48 133.17 760.8 130.99 760.83 120.93 767.51 123.12 767.48 133.17"></polygon><path class="cls-2" d="M767.48,133.99c-.09,0-.18,0-.25-.03l-6.69-2.18c-.34-.11-.57-.43-.57-.79l.03-10.04c0-.26.13-.51.34-.66.22-.15.5-.19.74-.11l6.69,2.18c.34.11.57.43.57.79l-.03,10.04c0,.26-.13.51-.34.66-.14.1-.32.15-.48.15h-.01ZM761.63,130.38l5.02,1.64.02-8.31-5.02-1.64-.02,8.31h0Z"></path><path class="cls-2" d="M767.43,146.6c-.09,0-.18,0-.25-.03l-6.69-2.18c-.34-.11-.57-.43-.57-.79l.03-10.04c0-.26.13-.51.34-.66.22-.15.5-.21.74-.11l6.69,2.18c.34.11.57.43.57.79l-.03,10.04c0,.26-.13.51-.34.66-.14.1-.32.15-.48.15h-.01ZM761.58,142.99l5.02,1.64.02-8.31-5.02-1.64-.02,8.31Z"></path><polygon class="cls-12" points="776.98 123.8 770.29 121.61 770.33 111.56 777 113.74 776.98 123.8"></polygon><path class="cls-2" d="M776.98,124.62c-.09,0-.18,0-.25-.03l-6.69-2.18c-.34-.11-.57-.43-.57-.79l.03-10.04c0-.26.13-.51.34-.66.22-.15.5-.19.74-.11l6.69,2.18c.34.11.57.43.57.79l-.03,10.04c0,.26-.13.51-.34.66-.14.1-.32.15-.48.15h-.01ZM771.11,121l5.02,1.64.02-8.31-5.02-1.64-.02,8.31Z"></path><path class="cls-2" d="M776.92,137.22c-.09,0-.18,0-.25-.03l-6.69-2.18c-.34-.11-.57-.43-.57-.79l.03-10.04c0-.26.13-.51.34-.66.22-.15.5-.21.74-.11l6.69,2.18c.34.11.57.43.57.79l-.03,10.04c0,.26-.13.51-.34.66-.14.1-.32.15-.48.15h-.01ZM771.08,133.61l5.02,1.64.02-8.31-5.02-1.64-.02,8.31Z"></path><polygon class="cls-12" points="776.89 149 770.2 146.82 770.23 136.77 776.92 138.95 776.89 149"></polygon><path class="cls-2" d="M776.89,149.83c-.09,0-.18,0-.25-.03l-6.69-2.18c-.34-.11-.57-.43-.57-.79l.03-10.04c0-.26.13-.51.34-.66.22-.15.5-.19.74-.11l6.69,2.18c.34.11.57.43.57.79l-.03,10.04c0,.26-.13.51-.34.66-.14.1-.32.15-.48.15h-.01ZM771.03,146.21l5.02,1.64.02-8.31-5.02-1.64-.02,8.31Z"></path><polygon class="cls-11" points="782.63 97.57 806.4 81.59 837.51 91.68 813.59 108.5 782.63 97.57"></polygon><path class="cls-2" d="M813.59,109.61c-.13,0-.24-.02-.37-.07l-30.96-10.93c-.4-.14-.67-.48-.73-.9s.13-.82.48-1.06l23.78-15.98c.28-.19.63-.24.96-.13l31.1,10.08c.4.13.69.47.75.88s-.11.83-.46,1.07l-23.92,16.82c-.19.13-.41.21-.64.21h.01ZM785.06,97.26l28.36,10.02,21.65-15.22-28.5-9.22-21.51,14.44h0v-.02Z"></path><polygon class="cls-11" points="782.63 97.57 782.63 155.5 813.59 166.9 813.59 108.5 782.63 97.57"></polygon><path class="cls-2" d="M813.59,168.02c-.13,0-.25-.02-.39-.07l-30.96-11.4c-.43-.17-.73-.57-.73-1.04v-57.93c0-.35.18-.69.47-.9s.66-.25,1-.14l30.96,10.93c.45.15.74.57.74,1.05v58.4c0,.35-.18.71-.47.9-.19.13-.41.21-.64.21h.02ZM783.72,154.74l28.76,10.59v-56.05l-28.76-10.16v55.59h0v.02h0Z"></path><polygon class="cls-11" points="813.59 108.5 837.51 91.68 837.51 149.76 813.59 166.9 813.59 108.5"></polygon><path class="cls-2" d="M813.59,168.02c-.18,0-.34-.03-.51-.13-.37-.19-.59-.56-.59-.98v-58.4c0-.35.18-.71.47-.9l23.92-16.82c.33-.24.78-.26,1.15-.08s.59.56.59.98v58.08c0,.35-.17.69-.46.89l-23.92,17.14c-.19.14-.42.21-.64.21h-.01,0ZM814.7,109.07v55.67l21.72-15.57v-55.37s-21.72,15.27-21.72,15.27Z"></path><polygon class="cls-12" points="795.24 121.35 786.26 118.4 786.31 104.91 795.3 107.84 795.24 121.35"></polygon><path class="cls-2" d="M795.24,122.45c-.11,0-.23,0-.34-.06l-8.98-2.94c-.46-.15-.76-.57-.76-1.06l.06-13.5c0-.35.17-.69.46-.89.3-.21.66-.25.99-.15l8.98,2.94c.46.15.76.57.76,1.06l-.06,13.5c0,.35-.17.69-.46.89-.19.14-.42.21-.65.21h0ZM787.37,117.61l6.78,2.21.03-11.17-6.78-2.21-.03,11.17Z"></path><path class="cls-2" d="M795.19,139.39c-.11,0-.23,0-.34-.06l-8.98-2.94c-.46-.15-.76-.57-.76-1.06l.06-13.5c0-.35.17-.69.46-.89.3-.21.65-.26.99-.15l8.98,2.94c.46.15.76.57.76,1.06l-.06,13.5c0,.35-.17.69-.46.89-.19.14-.42.21-.65.21h0ZM787.31,134.56l6.78,2.21.03-11.17-6.78-2.21-.03,11.17h0Z"></path><polygon class="cls-12" points="795.12 155.24 786.14 152.28 786.2 138.79 795.18 141.74 795.12 155.24"></polygon><path class="cls-2" d="M795.12,156.33c-.11,0-.23,0-.34-.06l-8.98-2.94c-.46-.15-.76-.57-.76-1.06l.06-13.5c0-.35.17-.69.46-.89.28-.21.66-.26.99-.15l8.98,2.94c.46.15.76.57.76,1.06l-.06,13.5c0,.35-.17.69-.46.89-.19.14-.42.21-.65.21h0ZM787.26,151.49l6.78,2.21.03-11.17-6.78-2.21-.03,11.17Z"></path><path class="cls-2" d="M807.95,126.8c-.11,0-.23,0-.34-.06l-8.98-2.93c-.46-.15-.76-.57-.76-1.06l.06-13.5c0-.35.17-.69.46-.89.28-.21.65-.26.99-.15l8.98,2.93c.46.15.76.57.76,1.06l-.06,13.5c0,.35-.17.69-.46.89-.19.14-.42.21-.65.21h0ZM800.08,121.95l6.78,2.21.03-11.17-6.78-2.21-.03,11.17Z"></path><polygon class="cls-12" points="807.88 142.63 798.9 139.69 798.96 126.18 807.94 129.14 807.88 142.63"></polygon><path class="cls-2" d="M807.88,143.73c-.11,0-.23,0-.34-.06l-8.98-2.93c-.46-.15-.76-.57-.76-1.06l.06-13.5c0-.35.17-.69.46-.89.3-.21.65-.25.99-.15l8.98,2.93c.46.15.76.57.76,1.06l-.06,13.5c0,.35-.17.69-.46.89-.19.14-.42.21-.65.21h0ZM800.01,138.89l6.78,2.21.03-11.17-6.78-2.21-.03,11.17h0Z"></path><path class="cls-2" d="M807.84,160.68c-.11,0-.23,0-.34-.06l-8.98-2.93c-.46-.15-.76-.57-.76-1.06l.06-13.5c0-.35.17-.69.46-.89.28-.21.65-.26.99-.15l8.98,2.93c.46.15.76.57.76,1.06l-.06,13.5c0,.35-.17.69-.46.89-.19.14-.42.21-.65.21h0ZM799.96,155.83l6.78,2.21.03-11.17-6.78-2.21-.03,11.17Z"></path></g><g><g><circle class="cls-11" cx="762.84" cy="192.98" r="31.33"></circle><path d="M762.84,225.14c-17.74,0-32.16-14.43-32.16-32.16s14.43-32.16,32.16-32.16,32.16,14.43,32.16,32.16-14.43,32.16-32.16,32.16ZM762.84,162.48c-16.82,0-30.51,13.68-30.51,30.51s13.68,30.51,30.51,30.51,30.51-13.68,30.51-30.51-13.68-30.51-30.51-30.51Z"></path></g><path d="M761.82,207.85c-2.04,0-4.04-.28-6.03-.82s-3.68-1.33-5.11-2.37l2.63-5.15c1.11.82,2.41,1.45,3.88,1.95s2.96.74,4.5.74c1.7,0,3.04-.34,4.02-1.02s1.47-1.61,1.47-2.79-.43-1.99-1.3-2.63-2.26-.96-4.19-.96h-3.05v-4.44l8.12-9.3.75,2.42h-15.37v-5.44h20.51v4.4l-8.12,9.25-3.44-1.97h1.97c3.6,0,6.32.82,8.19,2.42,1.85,1.62,2.79,3.68,2.79,6.19,0,1.67-.44,3.24-1.32,4.69s-2.21,2.62-4,3.49c-1.78.88-4.09,1.32-6.91,1.32h.01v.02Z"></path></g></g></g></svg>